<svg xmlns="http://www.w3.org/2000/svg">
<g>
<path d="M0 0V982H1682C1671 795 1612 712 1554 601C1513 506 1525 375 1477 274C1444 203 1391 141 1335 87C1300 54 1215 0 1215 0H0Z" fill="#121F48"/>
<path d="M1068 0H0V982H1586C1348 838 1444 547 1338 347C1294 263 1240 183 1178 111C1145 75 1068 0 1068 0Z" fill="#112854"/>
<path d="M0 0V982H1316C1314 860 1270 746 1245 631C1223 525 1238 399 1176 314C1099 208 1020 201 946 141C857 70 867 0 867 0H0Z" fill="#11315F"/>
<path d="M0 0L0 982H1158C1158 982 1176 855 1092 695C1053 621 1064 523 1013 457C943 367 812 347 724 273C647 208 586 125 521 49C507 33 482 0 482 0L0 0Z" fill="#103A6A"/>
<path d="M0 87V982H1034 978C1001 824 892 791 834 634C789 513 668 386 560 315C457 247 302 257 189 205C122 174 61 111 0 87Z" fill="#0F4376"/>
<path d="M0 339V982H793C793 982 664 674 543 569C394 440 226 553 0 339Z" fill="#0F487B"/>
<path d="M0 531V982H641C641 982 612 782 434 680C282 592 142 716 0 531Z" fill="#0F4C81"/>
</g>
</svg>
