<svg xmlns="http://www.w3.org/2000/svg" viewBox="0 0 1920 1080">
<g>
<path d="M0 0V978H1682C1613 806 1582 727 1524 616C1483 520 1542 342 1495 270C1457 215 1365 173 1302 122C1256 85 1166 0 1166 0H0Z" fill="#121F48"/>
<path d="M1068 0H0V978H1586C1348 834 1512 512 1381 328C1322 246 1202 225 1138 147C1104 107 1068 0 1068 0Z" fill="#112854"/>
<path d="M0 0V978H1316C1314 856 1319 726 1282 609C1248 500 1186 402 1124 307C1093 261 1063 215 1031 171C986 110 867 0 867 0H0Z" fill="#11315F"/>
<path d="M0 0L0 978H1185C1159 859 1132 734 1071 627C1041 578 1009 531 977 484C915 397 837 335 761 260C678 181 591 95 481 60C423 38 327 0 327 0H0Z" fill="#103A6A"/>
<path d="M0 86V977L1034 978C950 853 926 725 816 605C729 510 621 446 523 367C427 290 354 187 243 133C173 100 61 110 0 86Z" fill="#0F4376"/>
<path d="M0 335V978H793C793 978 694 770 613 693C443 529 226 549 0 335Z" fill="#0F487B"/>
<path d="M0 527V978H584C584 978 531 828 477 773C353 648 142 712 0 527Z" fill="#0F4C81"/>
</g>
</svg>
